<?xml version="1.0" encoding="UTF-8" standalone="no"?>
<!-- Created with Inkscape (http://www.inkscape.org/) -->

<svg
   xmlns:dc="http://purl.org/dc/elements/1.1/"
   xmlns:cc="http://creativecommons.org/ns#"
   xmlns:rdf="http://www.w3.org/1999/02/22-rdf-syntax-ns#"
   xmlns:svg="http://www.w3.org/2000/svg"
   xmlns="http://www.w3.org/2000/svg"
   xmlns:xlink="http://www.w3.org/1999/xlink"
   xmlns:sodipodi="http://sodipodi.sourceforge.net/DTD/sodipodi-0.dtd"
   xmlns:inkscape="http://www.inkscape.org/namespaces/inkscape"
   width="56.414364mm"
   height="14.056225mm"
   viewBox="0 0 56.414362 14.056225"
   version="1.1"
   id="svg838"
   inkscape:version="0.92.5 (2060ec1f9f, 2020-04-08)"
   sodipodi:docname="logo.dark.shapes.svg"
   inkscape:export-filename="/home/henning/Projects/capybara-lockstep/media/capybara-lockstep.dark.png"
   inkscape:export-xdpi="196"
   inkscape:export-ydpi="196">
  <defs
     id="defs832">
    <linearGradient
       inkscape:collect="always"
       id="linearGradient1406">
      <stop
         style="stop-color:#ff0844;stop-opacity:1"
         offset="0"
         id="stop1402" />
      <stop
         style="stop-color:#ffb199;stop-opacity:1"
         offset="1"
         id="stop1404" />
    </linearGradient>
    <linearGradient
       inkscape:collect="always"
       xlink:href="#linearGradient1406"
       id="linearGradient1408"
       x1="22.054907"
       y1="91.071762"
       x2="88.956696"
       y2="91.071762"
       gradientUnits="userSpaceOnUse"
       gradientTransform="matrix(0.84108881,0,0,0.08820435,-18.550136,57.908781)" />
  </defs>
  <sodipodi:namedview
     id="base"
     pagecolor="#ffffff"
     bordercolor="#666666"
     borderopacity="1.0"
     inkscape:pageopacity="0.0"
     inkscape:pageshadow="2"
     inkscape:zoom="3.959798"
     inkscape:cx="215.87243"
     inkscape:cy="25.711802"
     inkscape:document-units="mm"
     inkscape:current-layer="layer1"
     showgrid="false"
     fit-margin-top="0"
     fit-margin-left="0"
     fit-margin-right="0"
     fit-margin-bottom="0"
     inkscape:window-width="2560"
     inkscape:window-height="1391"
     inkscape:window-x="1920"
     inkscape:window-y="0"
     inkscape:window-maximized="1"
     inkscape:pagecheckerboard="true" />
  <metadata
     id="metadata835">
    <rdf:RDF>
      <cc:Work
         rdf:about="">
        <dc:format>image/svg+xml</dc:format>
        <dc:type
           rdf:resource="http://purl.org/dc/dcmitype/StillImage" />
        <dc:title></dc:title>
      </cc:Work>
    </rdf:RDF>
  </metadata>
  <g
     inkscape:label="Layer 1"
     inkscape:groupmode="layer"
     id="layer1"
     transform="translate(0.127,-52.518951)">
    <g
       aria-label="SPREEWALD"
       style="font-style:normal;font-variant:normal;font-weight:normal;font-stretch:normal;font-size:10.58333302px;line-height:1.25;font-family:'League Spartan';-inkscape-font-specification:'League Spartan';letter-spacing:0px;word-spacing:0px;fill:#ffffff;fill-opacity:1;stroke:none;stroke-width:0.26458332"
       id="text1385">
      <path
         d="m 2.7093332,52.518951 q 0.650875,0 1.1377083,0.142875 0.4868334,0.142875 0.7831667,0.301625 0.2963333,0.15875 0.3598333,0.211667 l -0.762,1.275291 q -0.084667,-0.0635 -0.2910416,-0.185208 -0.2010833,-0.121708 -0.4815417,-0.216958 -0.2751666,-0.09525 -0.5767916,-0.09525 -0.4074583,0 -0.6614583,0.148166 -0.2487084,0.142875 -0.2487084,0.428625 0,0.195792 0.1322917,0.354542 0.1375833,0.153458 0.41275,0.296333 0.2804583,0.137584 0.7090833,0.301625 0.3915833,0.142875 0.7355416,0.338667 0.3439584,0.195792 0.60325,0.465667 0.2645834,0.264583 0.4180417,0.613833 0.1534583,0.34925 0.1534583,0.79375 0,0.529167 -0.2169583,0.92075 -0.2169583,0.386292 -0.5926667,0.640292 -0.3704166,0.254 -0.8466666,0.375708 -0.4709583,0.127 -0.9789583,0.127 -0.7196667,0 -1.2911666,-0.164042 -0.56620835,-0.164041 -0.91545834,-0.354541 -0.34924999,-0.1905 -0.41804166,-0.254 l 0.78845831,-1.328209 q 0.0635,0.04762 0.24341666,0.153459 0.18520833,0.105833 0.44979163,0.22225 0.2645833,0.111125 0.5609167,0.1905 0.301625,0.07937 0.5926666,0.07937 0.4868333,0 0.73025,-0.185209 0.2434167,-0.1905 0.2434167,-0.497416 0,-0.227542 -0.1534584,-0.407459 Q 3.1749999,57.032743 2.8680832,56.873993 2.5611666,56.709951 2.1007916,56.530034 1.6404166,56.344826 1.23825,56.080243 0.84137497,55.815659 0.59266665,55.418784 0.34395832,55.021909 0.34395832,54.434534 q 0,-0.587375 0.32808332,-1.016 0.33337496,-0.433916 0.87312496,-0.66675 0.5450417,-0.232833 1.1641666,-0.232833 z"
         style="font-style:normal;font-variant:normal;font-weight:bold;font-stretch:normal;font-family:'League Spartan';-inkscape-font-specification:'League Spartan';fill:#ffffff;fill-opacity:1;stroke-width:0.26458332"
         id="path822" />
      <path
         d="m 6.0959969,52.645951 h 2.54 q 0.6720416,0 1.2117916,0.238125 0.5397495,0.232833 0.8572495,0.714375 0.322792,0.47625 0.322792,1.195917 0,0.714375 -0.322792,1.217083 -0.3175,0.497417 -0.8572495,0.762 -0.53975,0.259292 -1.2117916,0.259292 H 7.6782052 v 2.598208 H 6.0959969 Z m 1.5822083,3.137958 h 0.5185833 q 0.3227917,0 0.5767917,-0.09525 0.2592916,-0.09525 0.41275,-0.301625 0.1534583,-0.211666 0.1534583,-0.555625 0,-0.34925 -0.1534583,-0.550333 -0.1534584,-0.206375 -0.41275,-0.296333 -0.254,-0.08996 -0.5767917,-0.08996 H 7.6782052 Z"
         style="font-style:normal;font-variant:normal;font-weight:bold;font-stretch:normal;font-family:'League Spartan';-inkscape-font-specification:'League Spartan';fill:#ffffff;fill-opacity:1;stroke-width:0.26458332"
         id="path824" />
      <path
         d="m 11.906241,52.645951 h 2.846917 q 0.608542,0 1.084791,0.254 0.47625,0.254 0.751417,0.735542 0.280458,0.47625 0.280458,1.137708 0,0.661458 -0.238125,1.084792 -0.232833,0.418041 -0.560916,0.629708 -0.328083,0.206375 -0.608542,0.248708 l 1.698625,2.894542 h -1.778 L 13.86945,56.858118 h -0.381 v 2.772833 h -1.582209 z m 1.582209,3.116792 h 0.6985 q 0.423333,0 0.740833,-0.206375 0.3175,-0.206375 0.3175,-0.73025 0,-0.523875 -0.312208,-0.724959 -0.312209,-0.206375 -0.735542,-0.206375 H 13.48845 Z"
         style="font-style:normal;font-variant:normal;font-weight:bold;font-stretch:normal;font-family:'League Spartan';-inkscape-font-specification:'League Spartan';fill:#ffffff;fill-opacity:1;stroke-width:0.26458332"
         id="path826" />
      <path
         d="m 18.198027,52.645951 h 4.460875 v 1.386417 h -2.883959 v 1.423458 h 2.8575 v 1.344083 h -2.8575 v 1.444625 h 2.883959 v 1.386417 h -4.460875 z"
         style="font-style:normal;font-variant:normal;font-weight:bold;font-stretch:normal;font-family:'League Spartan';-inkscape-font-specification:'League Spartan';fill:#ffffff;fill-opacity:1;stroke-width:0.26458332"
         id="path828" />
      <path
         d="m 23.854799,52.645951 h 4.460875 v 1.386417 h -2.883958 v 1.423458 h 2.8575 v 1.344083 h -2.8575 v 1.444625 h 2.883958 v 1.386417 h -4.460875 z"
         style="font-style:normal;font-variant:normal;font-weight:bold;font-stretch:normal;font-family:'League Spartan';-inkscape-font-specification:'League Spartan';fill:#ffffff;fill-opacity:1;stroke-width:0.26458332"
         id="path830" />
      <path
         d="m 36.665905,59.630951 h -1.899708 l -1.185333,-4.873625 h 0.28575 l -1.185334,4.873625 h -1.910291 l -1.592792,-6.985 h 1.815042 l 0.841375,4.900083 h -0.02117 l 1.312333,-4.900083 h 1.190625 l 1.317625,4.900083 h -0.02117 l 0.841374,-4.900083 h 1.815042 z"
         style="font-style:normal;font-variant:normal;font-weight:bold;font-stretch:normal;font-family:'League Spartan';-inkscape-font-specification:'League Spartan';fill:#ffffff;fill-opacity:1;stroke-width:0.26458332"
         id="path832" />
      <path
         d="m 40.78809,52.645951 h 1.571625 l 2.756958,6.985 h -1.688042 l -0.508,-1.402292 h -2.688166 l -0.513292,1.402292 H 38.02584 Z m -0.02646,4.196292 h 1.635125 l -0.809625,-2.291292 h -0.01588 z"
         style="font-style:normal;font-variant:normal;font-weight:bold;font-stretch:normal;font-family:'League Spartan';-inkscape-font-specification:'League Spartan';fill:#ffffff;fill-opacity:1;stroke-width:0.26458332"
         id="path834" />
      <path
         d="m 45.714619,52.645951 h 1.582208 v 5.598583 h 2.534708 v 1.386417 h -4.116916 z"
         style="font-style:normal;font-variant:normal;font-weight:bold;font-stretch:normal;font-family:'League Spartan';-inkscape-font-specification:'League Spartan';fill:#ffffff;fill-opacity:1;stroke-width:0.26458332"
         id="path836" />
      <path
         d="m 50.873989,52.645951 h 2.100792 q 1.116542,0 1.846792,0.449792 0.735541,0.4445 1.100666,1.232958 0.365125,0.788458 0.365125,1.804458 0,1.021292 -0.365125,1.80975 -0.365125,0.788459 -1.100666,1.23825 -0.73025,0.449792 -1.846792,0.449792 h -2.100792 z m 1.576917,1.402292 v 4.180416 h 0.381 q 0.597958,0 0.989542,-0.269875 0.391583,-0.275166 0.587375,-0.746125 0.201083,-0.47625 0.201083,-1.068916 0,-0.597959 -0.195792,-1.068917 -0.1905,-0.47625 -0.587375,-0.751417 -0.396875,-0.275166 -0.994833,-0.275166 z"
         style="font-style:normal;font-variant:normal;font-weight:bold;font-stretch:normal;font-family:'League Spartan';-inkscape-font-specification:'League Spartan';fill:#ffffff;fill-opacity:1;stroke-width:0.26458332"
         id="path838" />
    </g>
    <rect
       style="fill:url(#linearGradient1408);fill-opacity:1;stroke:none;stroke-width:0.0272374;stroke-miterlimit:4;stroke-dasharray:none;stroke-opacity:1"
       id="rect1387"
       width="56.27034"
       height="1.2668874"
       x="-3.5688103e-15"
       y="65.308289" />
  </g>
</svg>
